<svg width="379" height="239" viewBox="0 0 379 239" fill="none" xmlns="http://www.w3.org/2000/svg">
<path fill-rule="evenodd" clip-rule="evenodd" d="M145.191 1.05958C138.22 3.25508 132.369 7.19095 126.628 13.5456C114.503 26.9676 100.632 44.1247 98.6098 48.2037C96.9487 51.5545 96.4318 53.8325 96.2283 58.7066C95.7858 69.2811 96.1827 69.9385 120.655 99.1872C132.47 113.309 145.62 129.059 149.876 134.186C159.986 146.365 163.914 148.481 172.14 146.184C175.352 145.287 179.169 142.228 182.75 137.683L185.073 134.733L181.5 130.368C179.534 127.967 177.653 126.003 177.322 126.003C176.989 126.003 175.03 128.102 172.967 130.668C170.562 133.66 168.64 135.334 167.608 135.336C165.609 135.34 151.252 117.564 147.006 109.828C141.413 99.6369 140.343 88.9394 144.056 80.2959C145.832 76.1593 146.683 75.3782 147.392 77.2353C148.895 81.1751 199.186 142.623 202.688 144.799C206.1 146.92 213.313 147.279 217.429 145.533C220.769 144.116 276.453 78.2661 279.847 71.7185C281.942 67.6784 282.155 66.5783 282.143 59.8736C282.132 54.0332 281.79 51.7482 280.513 48.9817C279.623 47.0561 273.268 38.4788 266.389 29.9208C247.697 6.66581 246.639 5.54238 240.824 2.77117C235.979 0.462862 235.25 0.344607 224.151 0.0800892C211.473 -0.22255 204.675 0.653471 198.83 3.34222L195.172 5.02502L199.359 9.37712L203.547 13.7292L208.433 12.6999C216.183 11.0669 228.286 11.3237 233.347 13.2274C246.038 18.002 249.213 35.0315 239.941 48.5927C238.771 50.3043 236.25 53.4551 234.339 55.5946C231.247 59.0559 230.809 59.3134 230.36 57.9286C228.932 53.5205 225.908 49.4765 210.874 31.8643C188.83 6.04108 186.579 4.09376 175.39 1.16306C169.669 -0.335361 149.837 -0.403046 145.191 1.05958ZM174.424 13.828C181.818 16.4475 180.597 15.2074 213.241 53.2606C216.545 57.1117 219.916 61.5618 220.732 63.1489C223.36 68.258 222.876 69.5262 214.4 79.7124C203.027 93.3833 194.257 104.373 193.831 105.487C193.505 106.34 203.284 119.001 204.268 119.001C204.474 119.001 206.783 117.641 209.401 115.979C217.501 110.835 238.971 100.579 239.831 101.443C240.129 101.744 224.831 120.536 216.195 130.477C213.871 133.151 211.387 135.339 210.674 135.339C208.826 135.339 206.09 132.232 185.778 107.078C159.716 74.8002 154.904 68.5109 154.904 66.7293C154.904 65.1025 155.783 64.0001 173.086 43.9247C178.618 37.5063 183.582 31.6915 184.116 31.003C184.943 29.9372 184.49 29.1413 181.062 25.6403C178.849 23.3795 175.55 20.8681 173.732 20.059L170.427 18.5886L166.728 20.4589C161.208 23.248 152.499 26.0534 142.524 28.2536C129.384 31.1524 127.581 31.4255 127.918 30.4623C128.079 30.0017 130.733 26.6369 133.815 22.9842C142.134 13.1247 146.133 11.5119 161.094 11.9795C167.462 12.1787 171.251 12.7046 174.424 13.828ZM165.736 33.8684C165.736 34.1134 159.643 41.4344 152.197 50.137C133.6 71.8695 131.537 75.2825 130.299 86.3588L129.758 91.1987L120.087 79.8299C109.827 67.7702 107.76 64.3906 107.727 59.6277C107.704 56.2248 108.598 54.1787 111.477 51.0519C115.335 46.8601 121.313 44.6397 139.112 40.7878C145.959 39.3065 154.489 37.0947 158.068 35.874C165.561 33.3168 165.736 33.2709 165.736 33.8684ZM263.599 45.8495C269.812 53.6792 271.43 57.4556 270.58 62.1368C268.861 71.5995 256.305 81.4559 234.357 90.5717C230.608 92.1284 224.346 94.9378 220.443 96.8143C216.54 98.6908 213.284 100.161 213.208 100.083C213.077 99.9465 222.475 88.5893 241.398 66.0151C250.556 55.0897 255.256 47.1542 256.037 41.2951C256.276 39.5003 256.76 38.1318 257.112 38.2547C257.464 38.3784 260.383 41.7953 263.599 45.8495Z" fill="#5358EE"/>
<path d="M311.807 193.88H323.247L332.608 234.6H329.247L339.487 193.88H351.408L361.487 234.6H358.128L367.408 193.88H378.288L365.408 238.2H353.087L343.408 200.68H346.927L337.008 238.2H324.767L311.807 193.88Z" fill="white"/>
<path d="M285.51 238.76C281.243 238.76 277.403 237.827 273.99 235.96C270.63 234.093 267.937 231.453 265.91 228.04C263.937 224.627 262.95 220.6 262.95 215.96C262.95 211.32 263.963 207.32 265.99 203.96C268.017 200.547 270.763 197.933 274.23 196.12C277.697 194.253 281.563 193.32 285.83 193.32C290.097 193.32 293.937 194.253 297.35 196.12C300.817 197.933 303.563 200.547 305.59 203.96C307.617 207.32 308.63 211.32 308.63 215.96C308.63 220.6 307.59 224.627 305.51 228.04C303.483 231.453 300.71 234.093 297.19 235.96C293.723 237.827 289.83 238.76 285.51 238.76ZM285.51 228.92C287.483 228.92 289.35 228.467 291.11 227.56C292.87 226.6 294.31 225.16 295.43 223.24C296.55 221.267 297.11 218.84 297.11 215.96C297.11 213.08 296.55 210.68 295.43 208.76C294.363 206.84 292.95 205.427 291.19 204.52C289.483 203.56 287.643 203.08 285.67 203.08C283.697 203.08 281.857 203.56 280.15 204.52C278.497 205.427 277.137 206.84 276.07 208.76C275.003 210.68 274.47 213.08 274.47 215.96C274.47 218.84 274.977 221.267 275.99 223.24C277.003 225.16 278.337 226.6 279.99 227.56C281.697 228.467 283.537 228.92 285.51 228.92Z" fill="white"/>
<path d="M240.283 226.28V179H251.563V225.56C251.563 226.733 251.91 227.613 252.603 228.2C253.296 228.787 254.123 229.08 255.083 229.08C255.776 229.08 256.363 228.973 256.843 228.76L258.923 237.32C257.056 238.28 254.923 238.76 252.523 238.76C250.55 238.76 248.603 238.36 246.683 237.56C244.816 236.707 243.27 235.373 242.043 233.56C240.87 231.693 240.283 229.267 240.283 226.28Z" fill="white"/>
<path d="M197.861 182.36H232.421V191.48H209.141V205.72H226.981V214.6H209.141V238.2H197.861V182.36Z" fill="white"/>
<path d="M116.159 238.2V194.36H123.439V203.72C124.133 201.907 125.173 200.253 126.559 198.76C127.999 197.267 129.679 196.067 131.599 195.16C133.519 194.253 135.599 193.8 137.839 193.8C141.893 193.8 145.333 194.84 148.159 196.92C151.039 199 152.906 201.827 153.759 205.4C154.399 203.16 155.466 201.187 156.959 199.48C158.453 197.72 160.266 196.333 162.399 195.32C164.533 194.307 166.853 193.8 169.359 193.8C174.586 193.8 178.746 195.427 181.839 198.68C184.986 201.88 186.559 206.413 186.559 212.28V238.2H179.279V213.96C179.279 209.587 178.186 206.2 175.999 203.8C173.813 201.347 170.933 200.12 167.359 200.12C163.679 200.12 160.693 201.533 158.399 204.36C156.159 207.133 155.039 210.867 155.039 215.56V238.2H147.759V214.28C147.759 209.853 146.666 206.387 144.479 203.88C142.293 201.373 139.386 200.12 135.759 200.12C133.359 200.12 131.226 200.787 129.359 202.12C127.546 203.4 126.106 205.213 125.039 207.56C123.973 209.853 123.439 212.52 123.439 215.56V238.2H116.159Z" fill="white"/>
<path d="M86.7956 238.76C83.3823 238.76 80.2356 238.253 77.3556 237.24C74.529 236.173 72.0756 234.653 69.9956 232.68C67.9156 230.707 66.3156 228.387 65.1956 225.72C64.0756 223 63.5156 219.96 63.5156 216.6C63.5156 213.24 64.129 210.173 65.3556 207.4C66.6356 204.627 68.3423 202.227 70.4756 200.2C72.6623 198.12 75.1423 196.547 77.9156 195.48C80.7423 194.36 83.6756 193.8 86.7156 193.8C89.4356 193.8 91.9156 194.147 94.1556 194.84C96.3956 195.533 98.3156 196.52 99.9156 197.8C101.516 199.08 102.769 200.547 103.676 202.2C104.582 203.853 105.036 205.667 105.036 207.64C105.036 210.413 104.262 212.733 102.716 214.6C101.169 216.413 99.1156 217.853 96.5556 218.92C93.9956 219.933 91.169 220.653 88.0756 221.08C85.0356 221.453 81.969 221.587 78.8756 221.48C78.0223 221.48 77.089 221.453 76.0756 221.4C75.0623 221.347 74.129 221.293 73.2756 221.24C72.4223 221.133 71.729 221.053 71.1956 221C71.5156 223.08 72.369 225 73.7556 226.76C75.1423 228.52 76.9556 229.933 79.1956 231C81.489 232.013 84.0223 232.52 86.7956 232.52C88.929 232.52 90.9556 232.147 92.8756 231.4C94.849 230.6 96.5823 229.613 98.0756 228.44C99.6223 227.267 100.876 226.067 101.836 224.84L107.276 228.92C105.889 230.787 104.156 232.467 102.076 233.96C99.9956 235.453 97.6756 236.627 95.1156 237.48C92.5556 238.333 89.7823 238.76 86.7956 238.76ZM79.0356 215.48C81.169 215.48 83.329 215.373 85.5156 215.16C87.7023 214.893 89.729 214.467 91.5956 213.88C93.4623 213.293 94.9556 212.52 96.0756 211.56C97.249 210.547 97.8356 209.267 97.8356 207.72C97.8356 206.227 97.3556 204.92 96.3956 203.8C95.489 202.627 94.209 201.72 92.5556 201.08C90.9556 200.387 89.1423 200.04 87.1156 200.04C84.0756 200.04 81.329 200.76 78.8756 202.2C76.4756 203.587 74.5556 205.427 73.1156 207.72C71.6756 210.013 70.9023 212.44 70.7956 215C71.7023 215.16 72.8756 215.293 74.3156 215.4C75.7556 215.453 77.329 215.48 79.0356 215.48Z" fill="white"/>
<path d="M45.52 201C44.9867 199.507 44.1867 198.04 43.12 196.6C42.1067 195.107 40.8267 193.773 39.28 192.6C37.7867 191.427 36.08 190.493 34.16 189.8C32.2933 189.053 30.2133 188.68 27.92 188.68C24.0267 188.68 20.5333 189.587 17.44 191.4C14.3467 193.213 11.92 195.747 10.16 199C8.4 202.253 7.52 206.093 7.52 210.52C7.52 214.893 8.37333 218.707 10.08 221.96C11.7867 225.213 14.1867 227.773 17.28 229.64C20.4267 231.453 24.0267 232.36 28.08 232.36C30.8533 232.36 33.3333 231.8 35.52 230.68C37.76 229.507 39.68 228.013 41.28 226.2C42.9333 224.333 44.2133 222.307 45.12 220.12C46.08 217.933 46.64 215.853 46.8 213.88H25.84V207.8H55.12V238.2H48.32V220.52L49.2 220.28C49.04 221.293 48.64 222.573 48 224.12C47.4133 225.667 46.56 227.293 45.44 229C44.32 230.707 42.9067 232.307 41.2 233.8C39.5467 235.24 37.6 236.44 35.36 237.4C33.12 238.307 30.56 238.76 27.68 238.76C23.84 238.76 20.24 238.067 16.88 236.68C13.5733 235.293 10.64 233.347 8.08 230.84C5.57333 228.333 3.6 225.347 2.16 221.88C0.72 218.413 0 214.627 0 210.52C0 206.36 0.693334 202.573 2.08 199.16C3.46667 195.693 5.41333 192.707 7.92 190.2C10.4267 187.64 13.3867 185.693 16.8 184.36C20.2133 182.973 23.9467 182.28 28 182.28C33.8133 182.28 38.9067 183.693 43.28 186.52C47.6533 189.347 50.8267 193.293 52.8 198.36L45.52 201Z" fill="white"/>
</svg>
