<svg width="517" height="89" viewBox="0 0 517 89" fill="none" xmlns="http://www.w3.org/2000/svg">
<path fill-rule="evenodd" clip-rule="evenodd" d="M30.0616 0.641516C25.7889 1.97076 22.2029 4.35371 18.6843 8.20108C11.2524 16.3273 2.75118 26.7149 1.51158 29.1845C0.493446 31.2133 0.176672 32.5924 0.0519544 35.5434C-0.219296 41.9457 0.0239762 42.3437 15.0229 60.0521C22.2646 68.6022 30.3243 78.1378 32.933 81.2419C39.1295 88.6154 41.5366 89.8966 46.5784 88.5061C48.5474 87.963 50.8867 86.1109 53.0813 83.3591L54.5054 81.573L52.315 78.9305C51.1105 77.4769 49.9577 76.2876 49.7542 76.2876C49.5503 76.2876 48.3496 77.5584 47.0854 79.1119C45.6115 80.9235 44.4336 81.9371 43.801 81.9381C42.5756 81.9404 33.7761 71.1783 31.1736 66.4944C27.7455 60.3244 27.0902 53.8477 29.3654 48.6145C30.4542 46.1101 30.9759 45.6372 31.4103 46.7615C32.3316 49.1468 63.155 86.3502 65.3013 87.6677C67.3926 88.9517 71.8137 89.1688 74.3365 88.1118C76.3832 87.2541 110.512 47.3856 112.593 43.4214C113.876 40.9754 114.007 40.3093 114 36.25C113.993 32.714 113.783 31.3306 113.001 29.6556C112.455 28.4898 108.56 23.2967 104.344 18.1153C92.8877 4.03576 92.239 3.35559 88.6748 1.67778C85.7053 0.280236 85.2586 0.20864 78.4565 0.0484894C70.6855 -0.134741 66.5191 0.395639 62.9369 2.02352L60.6948 3.04236L63.2613 5.6773L65.8277 8.31224L68.8228 7.68907C73.5726 6.70038 80.9907 6.85582 84.0925 8.00843C91.8705 10.8991 93.8167 21.2095 88.1337 29.4201C87.4167 30.4563 85.8717 32.364 84.7004 33.6593C82.8055 35.7549 82.5366 35.9109 82.2616 35.0724C81.3862 32.4036 79.5329 29.9551 70.3185 19.292C56.8077 3.65752 55.4282 2.47853 48.5701 0.704163C45.0638 -0.203042 32.9088 -0.244021 30.0616 0.641516ZM47.9783 8.37207C52.5104 9.95802 51.7616 9.2072 71.7696 32.2462C73.7945 34.5778 75.8606 37.2721 76.3609 38.233C77.9714 41.3263 77.6745 42.0941 72.48 48.2613C65.509 56.5382 60.1338 63.1915 59.873 63.8665C59.6734 64.3828 65.6669 72.0483 66.2697 72.0483C66.3958 72.0483 67.8113 71.2249 69.4156 70.2183C74.3801 67.1039 87.5396 60.8948 88.0664 61.4181C88.2495 61.5999 78.8728 72.9776 73.5797 78.996C72.1556 80.6154 70.6329 81.9399 70.1962 81.9399C69.0633 81.9399 67.3864 80.0591 54.9374 64.8293C38.964 45.2872 36.0144 41.4794 36.0144 40.4007C36.0144 39.4158 36.5531 38.7483 47.1584 26.5939C50.549 22.7079 53.5911 19.1874 53.9183 18.7705C54.4252 18.1252 54.1478 17.6434 52.0471 15.5237C50.6903 14.1549 48.6688 12.6344 47.5544 12.1445L45.5285 11.2543L43.2613 12.3867C39.8783 14.0753 34.5405 15.7738 28.427 17.1059C20.3729 18.861 19.268 19.0263 19.4748 18.4432C19.5734 18.1643 21.2 16.1271 23.0888 13.9156C28.188 7.94625 30.6387 6.96981 39.8081 7.2529C43.7113 7.37348 46.0336 7.6919 47.9783 8.37207ZM42.6534 20.5053C42.6534 20.6537 38.9189 25.0861 34.3551 30.355C22.9574 43.5128 21.6927 45.5792 20.9339 52.2853L20.6025 55.2156L14.6748 48.3324C8.38673 41.031 7.11963 38.9848 7.09971 36.1011C7.08548 34.0409 7.63368 32.8021 9.39775 30.909C11.7627 28.3711 15.4264 27.0268 26.3357 24.6947C30.532 23.7978 35.7602 22.4587 37.9539 21.7197C42.5462 20.1714 42.6534 20.1436 42.6534 20.5053ZM102.634 27.7592C106.442 32.4997 107.434 34.786 106.913 37.6202C105.859 43.3494 98.1634 49.3168 84.7113 54.8359C82.4138 55.7784 78.576 57.4793 76.1836 58.6155C73.7912 59.7516 71.7957 60.6418 71.7492 60.5947C71.6686 60.5118 77.4289 53.6357 89.0267 39.9683C94.6399 33.3536 97.5203 28.5491 97.9993 25.0018C98.1458 23.9151 98.4422 23.0866 98.658 23.161C98.8737 23.2359 100.663 25.3047 102.634 27.7592Z" fill="#5358EE"/>
<path d="M449.807 29.5H461.247L470.608 70.22H467.247L477.487 29.5H489.408L499.487 70.22H496.128L505.408 29.5H516.288L503.408 73.82H491.087L481.408 36.3H484.927L475.008 73.82H462.767L449.807 29.5Z" fill="white"/>
<path d="M423.51 74.38C419.243 74.38 415.403 73.4467 411.99 71.58C408.63 69.7133 405.937 67.0733 403.91 63.66C401.937 60.2467 400.95 56.22 400.95 51.58C400.95 46.94 401.963 42.94 403.99 39.58C406.017 36.1667 408.763 33.5533 412.23 31.74C415.697 29.8733 419.563 28.94 423.83 28.94C428.097 28.94 431.937 29.8733 435.35 31.74C438.817 33.5533 441.563 36.1667 443.59 39.58C445.617 42.94 446.63 46.94 446.63 51.58C446.63 56.22 445.59 60.2467 443.51 63.66C441.483 67.0733 438.71 69.7133 435.19 71.58C431.723 73.4467 427.83 74.38 423.51 74.38ZM423.51 64.54C425.483 64.54 427.35 64.0867 429.11 63.18C430.87 62.22 432.31 60.78 433.43 58.86C434.55 56.8867 435.11 54.46 435.11 51.58C435.11 48.7 434.55 46.3 433.43 44.38C432.363 42.46 430.95 41.0467 429.19 40.14C427.483 39.18 425.643 38.7 423.67 38.7C421.697 38.7 419.857 39.18 418.15 40.14C416.497 41.0467 415.137 42.46 414.07 44.38C413.003 46.3 412.47 48.7 412.47 51.58C412.47 54.46 412.977 56.8867 413.99 58.86C415.003 60.78 416.337 62.22 417.99 63.18C419.697 64.0867 421.537 64.54 423.51 64.54Z" fill="white"/>
<path d="M378.283 61.9V14.62H389.563V61.18C389.563 62.3533 389.91 63.2333 390.603 63.82C391.296 64.4067 392.123 64.7 393.083 64.7C393.776 64.7 394.363 64.5933 394.843 64.38L396.923 72.94C395.056 73.9 392.923 74.38 390.523 74.38C388.55 74.38 386.603 73.98 384.683 73.18C382.816 72.3267 381.27 70.9933 380.043 69.18C378.87 67.3133 378.283 64.8867 378.283 61.9Z" fill="white"/>
<path d="M335.861 17.98H370.421V27.1H347.141V41.34H364.981V50.22H347.141V73.82H335.861V17.98Z" fill="white"/>
<path d="M254.159 73.82V29.98H261.439V39.34C262.133 37.5267 263.173 35.8733 264.559 34.38C265.999 32.8867 267.679 31.6867 269.599 30.78C271.519 29.8733 273.599 29.42 275.839 29.42C279.893 29.42 283.333 30.46 286.159 32.54C289.039 34.62 290.906 37.4467 291.759 41.02C292.399 38.78 293.466 36.8067 294.959 35.1C296.453 33.34 298.266 31.9533 300.399 30.94C302.533 29.9267 304.853 29.42 307.359 29.42C312.586 29.42 316.746 31.0467 319.839 34.3C322.986 37.5 324.559 42.0333 324.559 47.9V73.82H317.279V49.58C317.279 45.2067 316.186 41.82 313.999 39.42C311.813 36.9667 308.933 35.74 305.359 35.74C301.679 35.74 298.693 37.1533 296.399 39.98C294.159 42.7533 293.039 46.4867 293.039 51.18V73.82H285.759V49.9C285.759 45.4733 284.666 42.0067 282.479 39.5C280.293 36.9933 277.386 35.74 273.759 35.74C271.359 35.74 269.226 36.4067 267.359 37.74C265.546 39.02 264.106 40.8333 263.039 43.18C261.973 45.4733 261.439 48.14 261.439 51.18V73.82H254.159Z" fill="white"/>
<path d="M224.796 74.38C221.382 74.38 218.236 73.8733 215.356 72.86C212.529 71.7933 210.076 70.2733 207.996 68.3C205.916 66.3267 204.316 64.0067 203.196 61.34C202.076 58.62 201.516 55.58 201.516 52.22C201.516 48.86 202.129 45.7933 203.356 43.02C204.636 40.2467 206.342 37.8467 208.476 35.82C210.662 33.74 213.142 32.1667 215.916 31.1C218.742 29.98 221.676 29.42 224.716 29.42C227.436 29.42 229.916 29.7667 232.156 30.46C234.396 31.1533 236.316 32.14 237.916 33.42C239.516 34.7 240.769 36.1667 241.676 37.82C242.582 39.4733 243.036 41.2867 243.036 43.26C243.036 46.0333 242.262 48.3533 240.716 50.22C239.169 52.0333 237.116 53.4733 234.556 54.54C231.996 55.5533 229.169 56.2733 226.076 56.7C223.036 57.0733 219.969 57.2067 216.876 57.1C216.022 57.1 215.089 57.0733 214.076 57.02C213.062 56.9667 212.129 56.9133 211.276 56.86C210.422 56.7533 209.729 56.6733 209.196 56.62C209.516 58.7 210.369 60.62 211.756 62.38C213.142 64.14 214.956 65.5533 217.196 66.62C219.489 67.6333 222.022 68.14 224.796 68.14C226.929 68.14 228.956 67.7667 230.876 67.02C232.849 66.22 234.582 65.2333 236.076 64.06C237.622 62.8867 238.876 61.6867 239.836 60.46L245.276 64.54C243.889 66.4067 242.156 68.0867 240.076 69.58C237.996 71.0733 235.676 72.2467 233.116 73.1C230.556 73.9533 227.782 74.38 224.796 74.38ZM217.036 51.1C219.169 51.1 221.329 50.9933 223.516 50.78C225.702 50.5133 227.729 50.0867 229.596 49.5C231.462 48.9133 232.956 48.14 234.076 47.18C235.249 46.1667 235.836 44.8867 235.836 43.34C235.836 41.8467 235.356 40.54 234.396 39.42C233.489 38.2467 232.209 37.34 230.556 36.7C228.956 36.0067 227.142 35.66 225.116 35.66C222.076 35.66 219.329 36.38 216.876 37.82C214.476 39.2067 212.556 41.0467 211.116 43.34C209.676 45.6333 208.902 48.06 208.796 50.62C209.702 50.78 210.876 50.9133 212.316 51.02C213.756 51.0733 215.329 51.1 217.036 51.1Z" fill="white"/>
<path d="M183.52 36.62C182.987 35.1267 182.187 33.66 181.12 32.22C180.107 30.7267 178.827 29.3933 177.28 28.22C175.787 27.0467 174.08 26.1133 172.16 25.42C170.293 24.6733 168.213 24.3 165.92 24.3C162.027 24.3 158.533 25.2067 155.44 27.02C152.347 28.8333 149.92 31.3667 148.16 34.62C146.4 37.8733 145.52 41.7133 145.52 46.14C145.52 50.5133 146.373 54.3267 148.08 57.58C149.787 60.8333 152.187 63.3933 155.28 65.26C158.427 67.0733 162.027 67.98 166.08 67.98C168.853 67.98 171.333 67.42 173.52 66.3C175.76 65.1267 177.68 63.6333 179.28 61.82C180.933 59.9533 182.213 57.9267 183.12 55.74C184.08 53.5533 184.64 51.4733 184.8 49.5H163.84V43.42H193.12V73.82H186.32V56.14L187.2 55.9C187.04 56.9133 186.64 58.1933 186 59.74C185.413 61.2867 184.56 62.9133 183.44 64.62C182.32 66.3267 180.907 67.9267 179.2 69.42C177.547 70.86 175.6 72.06 173.36 73.02C171.12 73.9267 168.56 74.38 165.68 74.38C161.84 74.38 158.24 73.6867 154.88 72.3C151.573 70.9133 148.64 68.9667 146.08 66.46C143.573 63.9533 141.6 60.9667 140.16 57.5C138.72 54.0333 138 50.2467 138 46.14C138 41.98 138.693 38.1933 140.08 34.78C141.467 31.3133 143.413 28.3267 145.92 25.82C148.427 23.26 151.387 21.3133 154.8 19.98C158.213 18.5933 161.947 17.9 166 17.9C171.813 17.9 176.907 19.3133 181.28 22.14C185.653 24.9667 188.827 28.9133 190.8 33.98L183.52 36.62Z" fill="white"/>
</svg>
