<svg width="186" height="147" viewBox="0 0 186 147" fill="none" xmlns="http://www.w3.org/2000/svg">
<path fill-rule="evenodd" clip-rule="evenodd" d="M49.0479 1.05958C42.0767 3.25508 36.2258 7.19095 30.4849 13.5456C18.3592 26.9676 4.48876 44.1247 2.46627 48.2037C0.805097 51.5545 0.288255 53.8325 0.0847676 58.7066C-0.357798 69.2811 0.0391191 69.9385 24.511 99.1872C36.3264 113.309 49.4765 129.059 53.7327 134.186C63.8429 146.365 67.7702 148.481 75.9964 146.184C79.2089 145.287 83.0256 142.228 86.6064 137.683L88.9298 134.733L85.356 130.368C83.3908 127.967 81.5099 126.003 81.178 126.003C80.8453 126.003 78.8862 128.102 76.8235 130.668C74.4188 133.66 72.4969 135.334 71.4647 135.336C69.4655 135.34 55.1084 117.564 50.8622 109.828C45.269 99.6369 44.1997 88.9394 47.912 80.2959C49.6885 76.1593 50.5396 75.3782 51.2483 77.2353C52.7516 81.1751 103.042 142.623 106.544 144.799C109.956 146.92 117.17 147.279 121.286 145.533C124.625 144.116 180.31 78.2661 183.704 71.7185C185.798 67.6784 186.012 66.5783 186 59.8736C185.989 54.0332 185.647 51.7482 184.369 48.9817C183.48 47.0561 177.124 38.4788 170.246 29.9208C151.554 6.66581 150.495 5.54238 144.68 2.77117C139.835 0.462862 139.106 0.344607 128.008 0.0800892C115.329 -0.22255 108.531 0.653471 102.687 3.34222L99.0284 5.02502L103.216 9.37712L107.403 13.7292L112.29 12.6999C120.039 11.0669 132.143 11.3237 137.204 13.2274C149.894 18.002 153.069 35.0315 143.797 48.5927C142.627 50.3043 140.107 53.4551 138.195 55.5946C135.104 59.0559 134.665 59.3134 134.216 57.9286C132.788 53.5205 129.764 49.4765 114.73 31.8643C92.6862 6.04108 90.4355 4.09376 79.246 1.16306C73.5251 -0.335361 53.6932 -0.403046 49.0479 1.05958ZM78.2804 13.828C85.6748 16.4475 84.4531 15.2074 117.098 53.2606C120.402 57.1117 123.773 61.5618 124.589 63.1489C127.216 68.258 126.732 69.5262 118.257 79.7124C106.883 93.3833 98.1131 104.373 97.6875 105.487C97.3618 106.34 107.141 119.001 108.124 119.001C108.33 119.001 110.64 117.641 113.257 115.979C121.357 110.835 142.828 100.579 143.687 101.443C143.986 101.744 128.687 120.536 120.051 130.477C117.728 133.151 115.243 135.339 114.531 135.339C112.682 135.339 109.946 132.232 89.6347 107.078C63.5728 74.8002 58.7603 68.5109 58.7603 66.7293C58.7603 65.1025 59.6393 64.0001 76.9427 43.9247C82.4747 37.5063 87.4381 31.6915 87.972 31.003C88.7991 29.9372 88.3465 29.1413 84.9189 25.6403C82.7053 23.3795 79.4069 20.8681 77.5887 20.059L74.2834 18.5886L70.5842 20.4589C65.0646 23.248 56.3556 26.0534 46.3809 28.2536C33.2401 31.1524 31.4373 31.4255 31.7746 30.4623C31.9356 30.0017 34.5894 26.6369 37.6711 22.9842C45.9909 13.1247 49.9895 11.5119 64.95 11.9795C71.3185 12.1787 75.1074 12.7046 78.2804 13.828ZM69.5923 33.8684C69.5923 34.1134 63.4993 41.4344 56.0531 50.137C37.4568 71.8695 35.3933 75.2825 34.1554 86.3588L33.6145 91.1987L23.9431 79.8299C13.6836 67.7702 11.6162 64.3906 11.5837 59.6277C11.5605 56.2248 12.4549 54.1787 15.3332 51.0519C19.1917 46.8601 25.1694 44.6397 42.9688 40.7878C49.8154 39.3065 58.3456 37.0947 61.9248 35.874C69.4175 33.3168 69.5923 33.2709 69.5923 33.8684ZM167.456 45.8495C173.668 53.6792 175.287 57.4556 174.436 62.1368C172.717 71.5995 160.161 81.4559 138.213 90.5717C134.465 92.1284 128.203 94.9378 124.3 96.8143C120.396 98.6908 117.14 100.161 117.064 100.083C116.933 99.9465 126.331 88.5893 145.254 66.0151C154.413 55.0897 159.112 47.1542 159.894 41.2951C160.133 39.5003 160.616 38.1318 160.968 38.2547C161.32 38.3784 164.24 41.7953 167.456 45.8495Z" fill="#5358EE"/>
</svg>
