<svg width="187" height="308" viewBox="0 0 187 308" fill="none" xmlns="http://www.w3.org/2000/svg">
<path fill-rule="evenodd" clip-rule="evenodd" d="M49.3276 1.05958C42.3565 3.25508 36.5056 7.19095 30.7646 13.5456C18.639 26.9676 4.76855 44.1247 2.74605 48.2037C1.08488 51.5545 0.56804 53.8325 0.364553 58.7066C-0.078013 69.2811 0.318904 69.9385 24.7908 99.1872C36.6062 113.309 49.7563 129.059 54.0125 134.186C64.1226 146.365 68.05 148.481 76.2762 146.184C79.4886 145.287 83.3054 142.228 86.8862 137.683L89.2096 134.733L85.6358 130.368C83.6706 127.967 81.7897 126.003 81.4578 126.003C81.1251 126.003 79.166 128.102 77.1033 130.668C74.6986 133.66 72.7767 135.334 71.7445 135.336C69.7452 135.34 55.3882 117.564 51.142 109.828C45.5488 99.6369 44.4795 88.9394 48.1918 80.2959C49.9683 76.1593 50.8194 75.3782 51.5281 77.2353C53.0314 81.1751 103.322 142.623 106.824 144.799C110.236 146.92 117.449 147.279 121.566 145.533C124.905 144.116 180.589 78.2661 183.984 71.7185C186.078 67.6784 186.292 66.5783 186.279 59.8736C186.268 54.0332 185.926 51.7482 184.649 48.9817C183.759 47.0561 177.404 38.4788 170.526 29.9208C151.833 6.66581 150.775 5.54238 144.96 2.77117C140.115 0.462862 139.386 0.344607 128.288 0.0800892C115.609 -0.22255 108.811 0.653471 102.966 3.34222L99.3082 5.02502L103.496 9.37712L107.683 13.7292L112.57 12.6999C120.319 11.0669 132.422 11.3237 137.483 13.2274C150.174 18.002 153.349 35.0315 144.077 48.5927C142.907 50.3043 140.386 53.4551 138.475 55.5946C135.383 59.0559 134.945 59.3134 134.496 57.9286C133.068 53.5205 130.044 49.4765 115.01 31.8643C92.966 6.04108 90.7153 4.09376 79.5258 1.16306C73.8049 -0.335361 53.973 -0.403046 49.3276 1.05958ZM78.5602 13.828C85.9546 16.4475 84.7329 15.2074 117.378 53.2606C120.681 57.1117 124.052 61.5618 124.869 63.1489C127.496 68.258 127.012 69.5262 118.537 79.7124C107.163 93.3833 98.3929 104.373 97.9673 105.487C97.6416 106.34 107.421 119.001 108.404 119.001C108.61 119.001 110.919 117.641 113.537 115.979C121.637 110.835 143.107 100.579 143.967 101.443C144.266 101.744 128.967 120.536 120.331 130.477C118.007 133.151 115.523 135.339 114.81 135.339C112.962 135.339 110.226 132.232 89.9145 107.078C63.8526 74.8002 59.0401 68.5109 59.0401 66.7293C59.0401 65.1025 59.919 64.0001 77.2224 43.9247C82.7545 37.5063 87.7179 31.6915 88.2518 31.003C89.0789 29.9372 88.6262 29.1413 85.1987 25.6403C82.9851 23.3795 79.6867 20.8681 77.8685 20.059L74.5632 18.5886L70.864 20.4589C65.3443 23.248 56.6354 26.0534 46.6606 28.2536C33.5198 31.1524 31.7171 31.4255 32.0544 30.4623C32.2154 30.0017 34.8692 26.6369 37.9509 22.9842C46.2707 13.1247 50.2693 11.5119 65.2298 11.9795C71.5983 12.1787 75.3872 12.7046 78.5602 13.828ZM69.8721 33.8684C69.8721 34.1134 63.7791 41.4344 56.3329 50.137C37.7366 71.8695 35.6731 75.2825 34.4351 86.3588L33.8943 91.1987L24.2229 79.8299C13.9634 67.7702 11.896 64.3906 11.8635 59.6277C11.8403 56.2248 12.7347 54.1787 15.613 51.0519C19.4715 46.8601 25.4492 44.6397 43.2485 40.7878C50.0952 39.3065 58.6254 37.0947 62.2046 35.874C69.6973 33.3168 69.8721 33.2709 69.8721 33.8684ZM167.736 45.8495C173.948 53.6792 175.566 57.4556 174.716 62.1368C172.997 71.5995 160.441 81.4559 138.493 90.5717C134.744 92.1284 128.483 94.9378 124.579 96.8143C120.676 98.6908 117.42 100.161 117.344 100.083C117.213 99.9465 126.611 88.5893 145.534 66.0151C154.692 55.0897 159.392 47.1542 160.173 41.2951C160.412 39.5003 160.896 38.1318 161.248 38.2547C161.6 38.3784 164.519 41.7953 167.736 45.8495Z" fill="#5358EE"/>
<path d="M116.159 234.92V191.08H123.439V200.44C124.133 198.627 125.173 196.973 126.559 195.48C127.999 193.987 129.679 192.787 131.599 191.88C133.519 190.973 135.599 190.52 137.839 190.52C141.893 190.52 145.333 191.56 148.159 193.64C151.039 195.72 152.906 198.547 153.759 202.12C154.399 199.88 155.466 197.907 156.959 196.2C158.453 194.44 160.266 193.053 162.399 192.04C164.533 191.027 166.853 190.52 169.359 190.52C174.586 190.52 178.746 192.147 181.839 195.4C184.986 198.6 186.559 203.133 186.559 209V234.92H179.279V210.68C179.279 206.307 178.186 202.92 175.999 200.52C173.813 198.067 170.933 196.84 167.359 196.84C163.679 196.84 160.693 198.253 158.399 201.08C156.159 203.853 155.039 207.587 155.039 212.28V234.92H147.759V211C147.759 206.573 146.666 203.107 144.479 200.6C142.293 198.093 139.386 196.84 135.759 196.84C133.359 196.84 131.226 197.507 129.359 198.84C127.546 200.12 126.106 201.933 125.039 204.28C123.973 206.573 123.439 209.24 123.439 212.28V234.92H116.159Z" fill="#202020"/>
<path d="M86.7956 235.48C83.3823 235.48 80.2356 234.973 77.3556 233.96C74.529 232.893 72.0756 231.373 69.9956 229.4C67.9156 227.427 66.3156 225.107 65.1956 222.44C64.0756 219.72 63.5156 216.68 63.5156 213.32C63.5156 209.96 64.129 206.893 65.3556 204.12C66.6356 201.347 68.3423 198.947 70.4756 196.92C72.6623 194.84 75.1423 193.267 77.9156 192.2C80.7423 191.08 83.6756 190.52 86.7156 190.52C89.4356 190.52 91.9156 190.867 94.1556 191.56C96.3956 192.253 98.3156 193.24 99.9156 194.52C101.516 195.8 102.769 197.267 103.676 198.92C104.582 200.573 105.036 202.387 105.036 204.36C105.036 207.133 104.262 209.453 102.716 211.32C101.169 213.133 99.1156 214.573 96.5556 215.64C93.9956 216.653 91.169 217.373 88.0756 217.8C85.0356 218.173 81.969 218.307 78.8756 218.2C78.0223 218.2 77.089 218.173 76.0756 218.12C75.0623 218.067 74.129 218.013 73.2756 217.96C72.4223 217.853 71.729 217.773 71.1956 217.72C71.5156 219.8 72.369 221.72 73.7556 223.48C75.1423 225.24 76.9556 226.653 79.1956 227.72C81.489 228.733 84.0223 229.24 86.7956 229.24C88.929 229.24 90.9556 228.867 92.8756 228.12C94.849 227.32 96.5823 226.333 98.0756 225.16C99.6223 223.987 100.876 222.787 101.836 221.56L107.276 225.64C105.889 227.507 104.156 229.187 102.076 230.68C99.9956 232.173 97.6756 233.347 95.1156 234.2C92.5556 235.053 89.7823 235.48 86.7956 235.48ZM79.0356 212.2C81.169 212.2 83.329 212.093 85.5156 211.88C87.7023 211.613 89.729 211.187 91.5956 210.6C93.4623 210.013 94.9556 209.24 96.0756 208.28C97.249 207.267 97.8356 205.987 97.8356 204.44C97.8356 202.947 97.3556 201.64 96.3956 200.52C95.489 199.347 94.209 198.44 92.5556 197.8C90.9556 197.107 89.1423 196.76 87.1156 196.76C84.0756 196.76 81.329 197.48 78.8756 198.92C76.4756 200.307 74.5556 202.147 73.1156 204.44C71.6756 206.733 70.9023 209.16 70.7956 211.72C71.7023 211.88 72.8756 212.013 74.3156 212.12C75.7556 212.173 77.329 212.2 79.0356 212.2Z" fill="#202020"/>
<path d="M45.52 197.72C44.9867 196.227 44.1867 194.76 43.12 193.32C42.1067 191.827 40.8267 190.493 39.28 189.32C37.7867 188.147 36.08 187.213 34.16 186.52C32.2933 185.773 30.2133 185.4 27.92 185.4C24.0267 185.4 20.5333 186.307 17.44 188.12C14.3467 189.933 11.92 192.467 10.16 195.72C8.4 198.973 7.52 202.813 7.52 207.24C7.52 211.613 8.37333 215.427 10.08 218.68C11.7867 221.933 14.1867 224.493 17.28 226.36C20.4267 228.173 24.0267 229.08 28.08 229.08C30.8533 229.08 33.3333 228.52 35.52 227.4C37.76 226.227 39.68 224.733 41.28 222.92C42.9333 221.053 44.2133 219.027 45.12 216.84C46.08 214.653 46.64 212.573 46.8 210.6H25.84V204.52H55.12V234.92H48.32V217.24L49.2 217C49.04 218.013 48.64 219.293 48 220.84C47.4133 222.387 46.56 224.013 45.44 225.72C44.32 227.427 42.9067 229.027 41.2 230.52C39.5467 231.96 37.6 233.16 35.36 234.12C33.12 235.027 30.56 235.48 27.68 235.48C23.84 235.48 20.24 234.787 16.88 233.4C13.5733 232.013 10.64 230.067 8.08 227.56C5.57333 225.053 3.6 222.067 2.16 218.6C0.72 215.133 0 211.347 0 207.24C0 203.08 0.693334 199.293 2.08 195.88C3.46667 192.413 5.41333 189.427 7.92 186.92C10.4267 184.36 13.3867 182.413 16.8 181.08C20.2133 179.693 23.9467 179 28 179C33.8133 179 38.9067 180.413 43.28 183.24C47.6533 186.067 50.8267 190.013 52.8 195.08L45.52 197.72Z" fill="#202020"/>
<path d="M117.013 262.36H128.453L137.813 303.08H134.453L144.693 262.36H156.613L166.693 303.08H163.333L172.613 262.36H183.493L170.613 306.68H158.293L148.613 269.16H152.133L142.213 306.68H129.973L117.013 262.36Z" fill="#202020"/>
<path d="M90.7151 307.24C86.4485 307.24 82.6085 306.307 79.1951 304.44C75.8351 302.573 73.1418 299.933 71.1151 296.52C69.1418 293.107 68.1552 289.08 68.1552 284.44C68.1552 279.8 69.1685 275.8 71.1951 272.44C73.2218 269.027 75.9685 266.413 79.4352 264.6C82.9018 262.733 86.7685 261.8 91.0351 261.8C95.3018 261.8 99.1418 262.733 102.555 264.6C106.022 266.413 108.768 269.027 110.795 272.44C112.822 275.8 113.835 279.8 113.835 284.44C113.835 289.08 112.795 293.107 110.715 296.52C108.688 299.933 105.915 302.573 102.395 304.44C98.9285 306.307 95.0351 307.24 90.7151 307.24ZM90.7151 297.4C92.6885 297.4 94.5551 296.947 96.3151 296.04C98.0751 295.08 99.5151 293.64 100.635 291.72C101.755 289.747 102.315 287.32 102.315 284.44C102.315 281.56 101.755 279.16 100.635 277.24C99.5685 275.32 98.1551 273.907 96.3951 273C94.6885 272.04 92.8485 271.56 90.8751 271.56C88.9018 271.56 87.0618 272.04 85.3551 273C83.7018 273.907 82.3418 275.32 81.2751 277.24C80.2085 279.16 79.6751 281.56 79.6751 284.44C79.6751 287.32 80.1818 289.747 81.1951 291.72C82.2085 293.64 83.5418 295.08 85.1951 296.04C86.9018 296.947 88.7418 297.4 90.7151 297.4Z" fill="#202020"/>
<path d="M45.4883 294.76V247.48H56.7683V294.04C56.7683 295.213 57.1149 296.093 57.8083 296.68C58.5016 297.267 59.3283 297.56 60.2883 297.56C60.9816 297.56 61.5683 297.453 62.0483 297.24L64.1283 305.8C62.2616 306.76 60.1283 307.24 57.7283 307.24C55.7549 307.24 53.8083 306.84 51.8883 306.04C50.0216 305.187 48.4749 303.853 47.2483 302.04C46.0749 300.173 45.4883 297.747 45.4883 294.76Z" fill="#202020"/>
<path d="M3.06641 250.84H37.6264V259.96H14.3464V274.2H32.1864V283.08H14.3464V306.68H3.06641V250.84Z" fill="#202020"/>
</svg>
